<svg id="visual" viewBox="0 0 900 600" width="900" height="600" xmlns="http://www.w3.org/2000/svg" xmlns:xlink="http://www.w3.org/1999/xlink" version="1.1"><g transform="translate(805.1631853488393 582.102400516885)"><path d="M308.5 -356.6C392.8 -296.8 449.5 -193.1 451.9 -92.5C454.4 8 402.6 105.2 348.1 202.3C293.7 299.4 236.6 396.4 152.1 434.2C67.6 472 -44.3 450.7 -125.1 397.8C-205.8 345 -255.3 260.5 -261.6 183.2C-267.9 105.9 -230.9 35.9 -212.4 -32C-194 -99.9 -194 -165.6 -161.7 -234.6C-129.4 -303.6 -64.7 -375.8 23.7 -404C112.1 -432.2 224.1 -416.4 308.5 -356.6" fill="#2176e9"></path></g></svg>